<?xml version="1.0" encoding="UTF-8"?>
<!-- Created with Inkscape (http://www.inkscape.org/) -->
<svg width="176.21" height="99.5" version="1.1" viewBox="0 0 176.21 99.5" xmlns="http://www.w3.org/2000/svg" xmlns:xlink="http://www.w3.org/1999/xlink">
 <defs>
  <clipPath id="clipPath2">
   <path transform="translate(-48.355 -41.332)" d="M 0,74.625 H 132.157 V 0 H 0 Z"/>
  </clipPath>
  <clipPath id="clipPath4">
   <path transform="translate(-36.325 -41.251)" d="M 0,74.625 H 132.157 V 0 H 0 Z"/>
  </clipPath>
  <clipPath id="clipPath6">
   <path transform="translate(-64.334 -41.251)" d="M 0,74.625 H 132.157 V 0 H 0 Z"/>
  </clipPath>
  <clipPath id="clipPath8">
   <path transform="translate(-92.918 -41.251)" d="M 0,74.625 H 132.157 V 0 H 0 Z"/>
  </clipPath>
  <clipPath id="clipPath10">
   <path transform="translate(-80.829 -63.006)" d="M 0,74.625 H 132.157 V 0 H 0 Z"/>
  </clipPath>
  <clipPath id="clipPath12">
   <path transform="translate(-11.017 -41.251)" d="M 0,74.625 H 132.157 V 0 H 0 Z"/>
  </clipPath>
  <clipPath id="clipPath14">
   <path transform="translate(-40.319 -20.075)" d="M 0,74.625 H 132.157 V 0 H 0 Z"/>
  </clipPath>
 </defs>
 <g>
  <g fill="#1d1d1b">
   <path transform="matrix(1.3333 0 0 -1.3333 64.473 44.39)" d="m0 0v-2.889h9.058c1.591 0 2.301-1.003 2.301-2.178s-0.661-2.301-2.301-2.301h-6.439c-1.811 0-2.595-0.758-2.595-2.62v-6.536h2.889v5.973c0 0.294 0.147 0.416 0.416 0.416h4.309l3.77-6.389h3.207l-3.844 6.61c2.522 0.71 3.501 2.914 3.501 4.969 0 2.644-1.591 4.945-5.312 4.945z" clip-path="url(#clipPath2)"/>
   <path transform="matrix(1.3333 0 0 -1.3333 48.433 44.499)" d="m0 0c-3.892 0-5.532-1.86-5.532-4.504 0-1.811 0.783-3.085 2.325-3.721-1.518-0.637-2.374-1.91-2.374-3.795 0-2.57 1.591-4.503 5.508-4.503h8.372v2.888h-8.372c-1.69 0-2.497 0.783-2.497 2.08 0 1.347 0.856 2.008 2.521 2.008h8.201v2.619h-8.128c-1.664 0-2.521 0.613-2.521 1.959 0 1.273 0.759 2.08 2.497 2.08h8.274v2.889z" clip-path="url(#clipPath4)"/>
   <path transform="matrix(1.3333 0 0 -1.3333 85.778 44.499)" d="m0 0v-2.889h4.823v-13.634h2.913v13.634h4.822v2.889z" clip-path="url(#clipPath6)"/>
   <path transform="matrix(1.3333 0 0 -1.3333 123.89 44.499)" d="m0 0c-4.798 0-7.466-2.717-7.466-8.273 0-5.534 2.643-8.25 7.466-8.25h2.546c3.696 0 5.141 2.276 5.141 5.165 0 2.863-1.445 4.675-4.381 4.675h-3.258l0.708-2.521h2.256c1.345 0 2.031-0.784 2.031-2.106 0-1.346-0.686-2.325-2.301-2.325h-2.742c-3.207 0-4.578 1.591-4.578 5.362 0 3.793 1.396 5.384 4.578 5.384h6.806l-1.417 2.889zm17.356 0c-4.797 0-7.465-2.742-7.465-8.299 0-5.532 2.642-8.224 7.465-8.224h2.252c4.824 0 7.467 2.692 7.467 8.224 0 5.557-2.669 8.299-7.467 8.299zm2.252-2.889c3.183 0 4.553-1.615 4.553-5.384 0-3.796-1.37-5.362-4.553-5.362h-2.252c-3.207 0-4.578 1.566-4.578 5.336 0 3.795 1.396 5.41 4.578 5.41z" clip-path="url(#clipPath8)"/>
  </g>
  <path transform="matrix(1.3333 0 0 -1.3333 107.77 15.492)" d="m0 0-5.176-11.762h3.892l0.692-39.3h1.472l0.718 39.3h3.734z" clip-path="url(#clipPath10)" fill="#009dc5"/>
  <path transform="matrix(1.3333 0 0 -1.3333 14.69 44.499)" d="m0 0 5.532-14.688c0.612-1.616 1.861-2.129 3.477-2.129 1.713 0 2.839 0.587 3.451 2.129l5.827 14.688h-3.207l-5.264-13.293c-0.171-0.391-0.416-0.562-0.807-0.562-0.392 0-0.661 0.171-0.808 0.562l-5.019 13.293z" clip-path="url(#clipPath12)" fill="#1d1d1b"/>
  <path transform="matrix(1.3333 0 0 -1.3333 53.759 72.734)" d="m0 0c-1.844 0-2.579-0.884-2.579-2.309 0-1.216 0.54-2.309 2.729-2.309h1.876c0.795 0 1.125-0.255 1.125-0.886 0-0.616-0.3-0.871-1.035-0.871h-4.605v-1.543h4.605c1.859 0 2.594 0.989 2.594 2.398 0 1.231-0.555 2.235-2.744 2.235h-1.861c-0.885 0-1.125 0.3-1.125 0.856 0 0.601 0.3 0.901 1.035 0.901h4.38v1.528zm10.98 0c-1.98 0-2.759-1.109-2.759-2.609v-2.7c0-1.5 0.779-2.609 2.759-2.609h4.845v1.543h-4.845c-0.87 0-1.215 0.466-1.215 1.096v0.571h3.766c1.949 0 2.684 0.824 2.684 2.279 0 1.53-0.795 2.429-2.669 2.429zm-1.215-2.624c0 0.615 0.345 1.096 1.215 1.096h2.551c0.78 0 1.125-0.391 1.125-0.992 0-0.585-0.315-0.945-1.17-0.945h-3.721zm12.329 2.624c-1.558 0-2.143-0.719-2.143-2.308v-5.61h1.588v5.37c0 0.69 0.315 1.02 1.02 1.02h2.79v1.528zm5.01 0 2.911-7.063c0.299-0.735 0.884-1.035 1.799-1.035 0.901 0 1.486 0.285 1.816 1.035l3.059 7.063h-1.71l-2.745-6.359c-0.074-0.164-0.21-0.239-0.42-0.239-0.194 0-0.33 0.075-0.389 0.239l-2.64 6.359zm20.82 0c-1.844 0-2.578-0.884-2.578-2.309 0-1.216 0.539-2.309 2.729-2.309h1.875c0.796 0 1.126-0.255 1.126-0.886 0-0.616-0.301-0.871-1.036-0.871h-4.604v-1.543h4.604c1.859 0 2.594 0.989 2.594 2.398 0 1.231-0.554 2.235-2.744 2.235h-1.862c-0.884 0-1.125 0.3-1.125 0.856 0 0.601 0.301 0.901 1.035 0.901h4.38v1.528z" clip-path="url(#clipPath14)" fill="#009dc5" stroke="#009dc5" stroke-miterlimit="8.16" stroke-width=".12"/>
 </g>
</svg>
